{
  "asset": {
    "version": "2.0",
    "generator": "Open Asset Import Library (assimp v6.0.0)"
  },
  "extensionsUsed": [
    "KHR_materials_volume",
    "FB_ngon_encoding"
  ],
  "accessors": [
    {
      "bufferView": 0,
      "byteOffset": 0,
      "componentType": 5126,
      "count": 249,
      "type": "VEC3",
      "max": [
        1.3351185321807861,
        1.8481333255767822,
        1.3199462890625
      ],
      "min": [
        -1.7136417627334595,
        -0.05084158852696419,
        -1.1591253280639648
      ]
    },
    {
      "bufferView": 1,
      "byteOffset": 0,
      "componentType": 5126,
      "count": 249,
      "type": "VEC3",
      "max": [
        0.9796079993247986,
        0.9936670660972595,
        0.993678092956543
      ],
      "min": [
        -0.9979656934738159,
        -0.9996474385261536,
        -0.9943161010742188
      ]
    },
    {
      "bufferView": 2,
      "byteOffset": 0,
      "componentType": 5126,
      "count": 249,
      "type": "VEC2",
      "max": [
        0.8449106812477112,
        0.998046875
      ],
      "min": [
        0.001953125,
        0.058474183082580566
      ]
    },
    {
      "bufferView": 3,
      "byteOffset": 0,
      "componentType": 5125,
      "count": 732,
      "type": "SCALAR",
      "max": [
        248
      ],
      "min": [
        0
      ]
    }
  ],
  "buffers": [
    {
      "byteLength": 10896,
      "uri": "rock-medium-b.bin"
    }
  ],
  "bufferViews": [
    {
      "buffer": 0,
      "byteOffset": 0,
      "byteLength": 2988,
      "target": 34962
    },
    {
      "buffer": 0,
      "byteOffset": 2988,
      "byteLength": 2988,
      "target": 34962
    },
    {
      "buffer": 0,
      "byteOffset": 5976,
      "byteLength": 1992,
      "target": 34962
    },
    {
      "buffer": 0,
      "byteOffset": 7968,
      "byteLength": 2928,
      "target": 34963
    }
  ],
  "images": [
    {
      "name": "Rocks_Diffuse.png",
      "uri": "rocks-medium.png"
    }
  ],
  "materials": [
    {
      "name": "Rocks",
      "pbrMetallicRoughness": {
        "baseColorTexture": {
          "index": 0
        },
        "metallicFactor": 0.4000000059604645
      }
    },
    {
      "name": "material"
    }
  ],
  "meshes": [
    {
      "name": "Rock_Medium_2",
      "primitives": [
        {
          "mode": 4,
          "material": 0,
          "indices": 3,
          "attributes": {
            "POSITION": 0,
            "NORMAL": 1,
            "TEXCOORD_0": 2
          }
        }
      ]
    }
  ],
  "nodes": [
    {
      "name": "RootNode",
      "children": [
        1
      ]
    },
    {
      "name": "Rock_Medium_2",
      "mesh": 0
    }
  ],
  "samplers": [
    {}
  ],
  "scenes": [
    {
      "nodes": [
        0
      ]
    }
  ],
  "textures": [
    {
      "source": 0,
      "sampler": 0
    }
  ],
  "scene": 0
}
