 {
    "asset": {
        "version": "2.0"
    },
    "scene": 0,
    "scenes": [
        {
            "nodes": [
                0,
                1
            ]
        }
    ],
    "nodes": [
        {
            "name": "Mesh",
            "matrix": [
                1.0,
                0.0,
                0.0,
                0.0,
                0.0,
                1.0,
                0.0,
                0.0,
                0.0,
                0.0,
                1.0,
                0.0,
                0.0,
                0.0,
                0.0,
                1.0
            ],
            "mesh": 0
        },
        {
            "name": "Camera",
            "matrix": [
                1.0,
                0.0,
                0.0,
                0.0,
                0.0,
                1.0,
                0.0,
                0.0,
                0.0,
                0.0,
                1.0,
                0.0,
                0.0,
                0.0,
                3.0,
                1.0
            ],
            "camera": 0
        }
    ],
    "meshes": [
        {
            "primitives": [
                {
                    "indices": 1,
                    "mode": 4,
                    "material": 0,
                    "attributes": {
                        "POSITION": 0,
                        "NORMAL": 2,
                        "TEXCOORD_0": 3
                    }
                }
            ]
        }
    ],
    "textures": [
        {
            "sampler": 0,
            "source": 0
        },
        {
            "sampler": 0,
            "source": 1
        }
    ],
    "samplers": [
        {
            "magFilter": 9729,
            "minFilter": 9986,
            "wrapS": 10497,
            "wrapT": 10497
        }
    ],
    "buffers": [
        {
            "byteLength": 1381856,
            "uri": "sphere.bin"
        }
    ],
    "images": [
        {
            "mimeType": "image/png",
            "uri": "sphere.png"
        },
        {
            "mimeType": "image/png",
            "uri": "sphere-normal.png"
        }
    ],
    "bufferViews": [
        {
            "buffer": 0,
            "byteLength": 298740
        },
        {
            "buffer": 0,
            "byteLength": 585216,
            "byteOffset": 298740
        },
        {
            "buffer": 0,
            "byteLength": 298740,
            "byteOffset": 883956
        },
        {
            "buffer": 0,
            "byteLength": 199160,
            "byteOffset": 1182696
        }
    ],
    "accessors": [
        {
            "bufferView": 0,
            "type": "VEC3",
            "componentType": 5126,
            "count": 24895,
            "min": [
                -1.0,
                -1.0,
                -1.0
            ],
            "max": [
                1.0,
                1.0,
                1.0
            ]
        },
        {
            "bufferView": 1,
            "type": "SCALAR",
            "componentType": 5125,
            "count": 146304
        },
        {
            "bufferView": 2,
            "type": "VEC3",
            "componentType": 5126,
            "count": 24895
        },
        {
            "bufferView": 3,
            "type": "VEC2",
            "componentType": 5126,
            "count": 24895
        }
    ],
    "materials": [
    {
        "pbrMetallicRoughness": {
            "baseColorTexture": {
                "index": 0,
                "texCoord": 0
            },
            "metallicFactor": 0,
            "baseColorFactor": [
                1,
                1,
                1,
                1
            ],
            "roughnessFactor": 1
        },
        "normalTexture": {
            "index": 1,
            "texCoord": 0
        },
        "emissiveFactor": [
            0,
            0,
            0
        ],
        "name": "sphere-concrete",
        "alphaMode": "OPAQUE",
        "doubleSided": false
        }
    ],
    "cameras": [
        {
            "name": "Camera",
            "type": "perspective",
            "perspective": {
                "znear": 0.01,
                "yfov": 0.7853982
            }
        }
    ]
}